<svg width="80" height="76" viewBox="0 0 80 76" fill="none" xmlns="http://www.w3.org/2000/svg">
<ellipse cx="40" cy="38" rx="40" ry="38" fill="#180202"/>
<path d="M38.196 35.0938H31.9744C31.8608 34.2888 31.6288 33.5739 31.2784 32.9489C30.928 32.3144 30.4782 31.7746 29.929 31.3295C29.3797 30.8845 28.7453 30.5436 28.0256 30.3068C27.3153 30.0701 26.5436 29.9517 25.7102 29.9517C24.2045 29.9517 22.893 30.3258 21.7756 31.0739C20.6581 31.8125 19.7917 32.892 19.1761 34.3125C18.5606 35.7235 18.2528 37.4375 18.2528 39.4545C18.2528 41.5284 18.5606 43.2708 19.1761 44.6818C19.8011 46.0928 20.6723 47.1581 21.7898 47.8778C22.9072 48.5975 24.1998 48.9574 25.6676 48.9574C26.4915 48.9574 27.2538 48.8485 27.9545 48.6307C28.6648 48.4129 29.2945 48.0956 29.8438 47.679C30.393 47.2528 30.8475 46.7367 31.2074 46.1307C31.5767 45.5246 31.8324 44.8333 31.9744 44.0568L38.196 44.0852C38.035 45.4205 37.6326 46.7083 36.9886 47.9489C36.3542 49.1799 35.4972 50.2831 34.4176 51.2585C33.3475 52.2244 32.0691 52.9915 30.5824 53.5597C29.1051 54.1184 27.4337 54.3977 25.5682 54.3977C22.9735 54.3977 20.6534 53.8106 18.608 52.6364C16.572 51.4621 14.9621 49.7623 13.7784 47.5369C12.6042 45.3116 12.017 42.6174 12.017 39.4545C12.017 36.2822 12.6136 33.5833 13.8068 31.358C15 29.1326 16.6193 27.4375 18.6648 26.2727C20.7102 25.0985 23.0114 24.5114 25.5682 24.5114C27.2538 24.5114 28.8163 24.7481 30.2557 25.2216C31.7045 25.6951 32.9877 26.3864 34.1051 27.2955C35.2225 28.1951 36.1316 29.2983 36.8324 30.6051C37.5426 31.9119 37.9972 33.4081 38.196 35.0938ZM47.8622 24.9091L54.8935 47.0114H55.1634L62.2088 24.9091H69.027L58.9986 54H51.0724L41.0298 24.9091H47.8622Z" fill="white"/>
</svg>
