<svg width="87" height="87" viewBox="0 0 87 87" fill="none" xmlns="http://www.w3.org/2000/svg">
<circle cx="43.5" cy="43.5" r="43.5" fill="#180202"/>
<path d="M62 16.6858C62 16.2439 61.8228 15.8202 61.5074 15.5077C61.192 15.1952 60.7642 15.0197 60.3182 15.0197H51.9091C47.6747 14.8107 43.5289 16.2706 40.3776 19.0803C37.2263 21.89 35.3256 25.8211 35.0909 30.0148V39.0118H26.6818C26.2358 39.0118 25.808 39.1874 25.4926 39.4998C25.1772 39.8123 25 40.2361 25 40.6779V49.3418C25 49.7836 25.1772 50.2074 25.4926 50.5199C25.808 50.8323 26.2358 51.0079 26.6818 51.0079H35.0909V73.3339C35.0909 73.7758 35.2681 74.1995 35.5835 74.512C35.8989 74.8245 36.3267 75 36.7727 75H46.8636C47.3097 75 47.7375 74.8245 48.0529 74.512C48.3683 74.1995 48.5455 73.7758 48.5455 73.3339V51.0079H57.3582C57.7322 51.0132 58.0973 50.8949 58.3958 50.6716C58.6943 50.4483 58.9092 50.1328 59.0064 49.775L61.4282 41.1111C61.4951 40.865 61.5041 40.6068 61.4545 40.3567C61.4049 40.1065 61.2979 39.871 61.142 39.6682C60.986 39.4654 60.7852 39.3008 60.5549 39.187C60.3246 39.0732 60.071 39.0132 59.8136 39.0118H48.5455V30.0148C48.6291 29.19 49.0201 28.4257 49.6421 27.8711C50.264 27.3166 51.0723 27.0116 51.9091 27.0158H60.3182C60.7642 27.0158 61.192 26.8402 61.5074 26.5278C61.8228 26.2153 62 25.7915 62 25.3496V16.6858Z" fill="white"/>
</svg>
