<svg width="80" height="80" viewBox="0 0 80 80" fill="none" xmlns="http://www.w3.org/2000/svg">
<circle cx="40" cy="40" r="40" fill="#1B1919"/>
<path fill-rule="evenodd" clip-rule="evenodd" d="M29.987 14.156C32.7063 14.0284 33.5733 14 40.5 14C47.4267 14 48.2937 14.0307 51.0106 14.156C53.7275 14.2813 55.5821 14.7233 57.2048 15.3638C58.904 16.0185 60.4456 17.042 61.7206 18.3656C63.0188 19.6633 64.0203 21.2327 64.6601 22.9676C65.2906 24.6222 65.7218 26.5131 65.847 29.2785C65.9722 32.0558 66 32.9398 66 40C66 47.0625 65.9699 47.9465 65.847 50.7191C65.7241 53.4845 65.2906 55.3755 64.6601 57.03C64.0203 58.7651 63.0171 60.3372 61.7206 61.6367C60.4456 62.9604 58.904 63.9815 57.2048 64.6338C55.5821 65.2767 53.7275 65.7164 51.0153 65.844C48.2937 65.9716 47.4267 66 40.5 66C33.5733 66 32.7063 65.9693 29.987 65.844C27.2748 65.7187 25.4202 65.2767 23.7975 64.6338C22.0958 63.9814 20.5539 62.9586 19.2794 61.6367C17.9821 60.3383 16.9781 58.767 16.3376 57.0324C15.7094 55.3778 15.2782 53.4869 15.153 50.7215C15.0278 47.9442 15 47.0602 15 40C15 32.9375 15.0301 32.0535 15.153 29.2833C15.2759 26.5131 15.7094 24.6222 16.3376 22.9676C16.9791 21.2329 17.9838 19.6616 19.2817 18.3633C20.5545 17.0408 22.0947 16.0172 23.7952 15.3638C25.4179 14.7233 27.2725 14.2836 29.9847 14.156H29.987ZM50.8043 18.836C48.1152 18.7107 47.3085 18.6847 40.5 18.6847C33.6915 18.6847 32.8848 18.7107 30.1957 18.836C27.7083 18.9518 26.3591 19.3749 25.4596 19.7318C24.2704 20.2045 23.4196 20.7647 22.5271 21.6747C21.6811 22.5139 21.03 23.5356 20.6216 24.6647C20.2715 25.5818 19.8566 26.9575 19.743 29.4936C19.6201 32.2355 19.5946 33.058 19.5946 40C19.5946 46.942 19.6201 47.7645 19.743 50.5064C19.8566 53.0425 20.2715 54.4182 20.6216 55.3353C21.0296 56.4627 21.681 57.4862 22.5271 58.3253C23.3501 59.188 24.3539 59.8522 25.4596 60.2682C26.3591 60.6251 27.7083 61.0482 30.1957 61.164C32.8848 61.2893 33.6892 61.3153 40.5 61.3153C47.3108 61.3153 48.1152 61.2893 50.8043 61.164C53.2917 61.0482 54.6409 60.6251 55.5404 60.2682C56.7296 59.7955 57.5804 59.2353 58.4729 58.3253C59.319 57.4862 59.9704 56.4627 60.3784 55.3353C60.7285 54.4182 61.1434 53.0425 61.257 50.5064C61.3799 47.7645 61.4054 46.942 61.4054 40C61.4054 33.058 61.3799 32.2355 61.257 29.4936C61.1434 26.9575 60.7285 25.5818 60.3784 24.6647C59.9148 23.4522 59.3654 22.5847 58.4729 21.6747C57.6497 20.8122 56.6478 20.1483 55.5404 19.7318C54.6409 19.3749 53.2917 18.9518 50.8043 18.836ZM37.243 48.0151C39.0619 48.7871 41.0874 48.8913 42.9733 48.3099C44.8593 47.7284 46.4888 46.4974 47.5835 44.8271C48.6781 43.1568 49.1701 41.1508 48.9754 39.1517C48.7806 37.1526 47.9112 35.2845 46.5157 33.8664C45.626 32.9599 44.5504 32.2657 43.366 31.834C42.1817 31.4022 40.9183 31.2436 39.6666 31.3695C38.4149 31.4953 37.2062 31.9026 36.1275 32.5619C35.0487 33.2213 34.1267 34.1163 33.4279 35.1826C32.7291 36.2488 32.2709 37.4598 32.0862 38.7283C31.9015 39.9968 31.9949 41.2912 32.3598 42.5185C32.7247 43.7457 33.3518 44.8753 34.1962 45.8257C35.0406 46.7761 36.0811 47.5239 37.243 48.0151ZM31.2319 30.5502C32.449 29.3092 33.8939 28.3248 35.4841 27.6532C37.0744 26.9816 38.7788 26.6359 40.5 26.6359C42.2212 26.6359 43.9256 26.9816 45.5159 27.6532C47.1061 28.3248 48.551 29.3092 49.7681 30.5502C50.9852 31.7911 51.9507 33.2644 52.6093 34.8858C53.268 36.5072 53.6071 38.245 53.6071 40C53.6071 41.755 53.268 43.4928 52.6093 45.1142C51.9507 46.7356 50.9852 48.2089 49.7681 49.4498C47.31 51.9561 43.9762 53.3641 40.5 53.3641C37.0238 53.3641 33.69 51.9561 31.2319 49.4498C28.7739 46.9436 27.3929 43.5444 27.3929 40C27.3929 36.4556 28.7739 33.0564 31.2319 30.5502ZM56.514 28.6262C56.8156 28.3361 57.0571 27.9872 57.2241 27.6003C57.3911 27.2134 57.4802 26.7962 57.4863 26.3735C57.4923 25.9508 57.4151 25.5311 57.2593 25.1394C57.1034 24.7476 56.872 24.3918 56.5788 24.0928C56.2856 23.7939 55.9366 23.558 55.5524 23.399C55.1682 23.2401 54.7566 23.1614 54.342 23.1676C53.9274 23.1737 53.5183 23.2646 53.1388 23.4349C52.7593 23.6052 52.4171 23.8514 52.1326 24.1589C51.5793 24.757 51.2764 25.5514 51.2881 26.3735C51.2999 27.1956 51.6254 27.9806 52.1956 28.562C52.7658 29.1434 53.5357 29.4753 54.342 29.4873C55.1483 29.4992 55.9274 29.1904 56.514 28.6262Z" fill="white"/>
</svg>
